<?xml version="1.0" encoding="UTF-8"?>
<svg id="Layer_2" data-name="Layer 2" xmlns="http://www.w3.org/2000/svg" width="628.61" height="158.49" viewBox="0 0 628.61 158.49">
  <defs>
    <style>
      .cls-1 {
        fill: #ef5a29;
      }

      .cls-2 {
        fill: #5507cf;
      }
    </style>
  </defs>
  <g id="Layer_2-2" data-name="Layer 2">
    <g>
      <path class="cls-2" d="M88.02,4.06c6.24,0,12.49,.05,18.73-.03,1.52-.02,2.38,.37,3.04,1.84,21.76,49,43.56,97.99,65.36,146.98,1.11,2.51,1.12,2.51-1.6,2.51-10.07,0-20.15-.04-30.22,.04-1.6,.01-2.34-.53-2.94-1.94-3.85-9.15-7.83-18.25-11.65-27.42-.77-1.84-1.68-2.59-3.81-2.59-24.72,.09-49.45,.08-74.17,.01-1.95,0-2.87,.52-3.64,2.4-3.79,9.19-7.83,18.27-11.69,27.44-.64,1.52-1.35,2.12-3.08,2.1-10.15-.09-20.31-.08-30.47-.02-1.82,.01-2.34-.23-1.48-2.14C14.97,120.64,29.49,87.99,44.02,55.36c7.24-16.27,14.53-32.53,21.7-48.83,.81-1.85,1.73-2.58,3.82-2.53,6.16,.16,12.32,.06,18.48,.06Zm-27.76,91.26h55.25c-9.2-21.45-18.3-42.68-27.62-64.41-9.29,21.65-18.41,42.91-27.64,64.41Z"/>
      <path class="cls-2" d="M588.35,129.41c-2.46,3.72-4.61,6.84-7.05,9.76-20.79,24.8-56.71,24.1-76.17,7.11-9.5-8.29-15.22-18.78-17.81-30.98-3.2-15.12-2.7-30.09,3.02-44.59,9.23-23.37,31.42-36.12,56.41-32.82,18.05,2.39,31.06,12.19,40.7,27.1,.17,.26,.37,.5,.84,1.12,.71-6.55,1.4-12.69,2.05-18.82,1.08-10.23,2.14-20.47,3.23-30.7,.52-4.95,1.13-9.89,1.59-14.85,.13-1.37,.63-1.76,1.99-1.75,9.99,.05,19.97,.06,29.96,0,1.58-.01,1.61,.5,1.46,1.87-2.12,19.05-4.15,38.11-6.24,57.16-1.24,11.29-2.59,22.58-3.85,33.87-.59,5.26,.61,10.42,1.12,15.61,1.32,13.54,2.84,27.06,4.27,40.59,.02,.17,.02,.33,.03,.5,.17,1.81,1.28,4.12,.26,5.29-1.14,1.31-3.6,.43-5.48,.44-8.49,.05-16.98-.02-25.47,.06-1.7,.02-2.23-.48-2.39-2.21-.69-7.68-1.57-15.35-2.45-23.76Zm-39.83,2.52c5.77,.09,11.2-1.21,16.3-3.91,11.94-6.32,19.3-16.45,23.94-28.82,.26-.7,.35-1.42,.07-2.17-5.24-13.8-13.39-25.18-27.6-30.73-14.84-5.8-31.91-1.71-39.71,15.05-3.28,7.05-3.82,14.51-3.11,22.17,1.52,16.48,14.07,28.37,30.12,28.42Z"/>
      <path class="cls-2" d="M384.17,65.56c4-7.36,8.81-13.44,15.09-18.3,17.79-13.78,45.67-13.13,62.18,1.56,8.79,7.82,13.05,18.04,14.98,29.38,.8,4.68,1.06,9.4,1.05,14.15-.03,20.2-.04,40.41,.04,60.61,0,1.99-.54,2.46-2.47,2.44-9.07-.1-18.15-.14-27.22,.02-2.32,.04-2.69-.72-2.68-2.81,.08-18.37,.05-36.75,.04-55.12,0-4.16-.24-8.3-1.18-12.38-2.52-10.89-9.17-17.52-20.26-19.25-12.63-1.97-23.5,1.24-31.04,12.27-4.17,6.1-5.64,13.07-5.66,20.35-.05,18.04-.06,36.08,.04,54.12,.01,2.32-.63,2.84-2.86,2.81-9.07-.13-18.15-.11-27.22,0-1.88,.02-2.36-.48-2.36-2.36,.02-36.83,0-73.66,.38-110.49,.02-1.6,.39-2.1,2.05-2.08,6.91,.09,13.82,.14,20.73-.02,2.05-.05,2.5,.81,2.75,2.49,1.01,6.89,2.08,13.77,3.14,20.66,.08,.49,.23,.96,.48,1.96Z"/>
      <path class="cls-1" d="M258.93,66.49c-27.72,0-55.44-.02-83.16,.05-2.05,0-2.62-.45-2.61-2.56,.09-19.04,.09-38.07,0-57.11,0-2.05,.49-2.65,2.59-2.62,8.74,.12,17.48,.1,26.22,.01,1.86-.02,2.4,.47,2.39,2.36-.09,10.64,.02,21.28-.09,31.92-.02,2.11,.61,2.59,2.64,2.59,45.03-.06,90.07-.05,135.1-.04,3.56,0,3.14-.49,3.15,3.2,.02,6.57-.09,13.14,.06,19.7,.05,2.15-.63,2.55-2.64,2.55-27.89-.07-55.77-.05-83.66-.05Z"/>
      <path class="cls-2" d="M345.57,125.61c0,8.33-.02,16.7,.02,25.08,0,1.32-.95,1.4-1.74,1.72-8.58,3.39-17.5,5.29-26.69,5.83-7.66,.45-15.32,.22-22.82-1.64-17.61-4.36-28.59-16.96-30.75-35.01-.75-6.22-.48-12.45-.52-18.68-.06-9.23,.04-18.46-.06-27.68-.02-2.07,.33-2.83,2.66-2.79,8.99,.16,17.98,.13,26.97,.02,2.02-.03,2.67,.4,2.64,2.54-.12,10.64-.06,21.28-.05,31.92,0,3.16,.23,6.31,.81,9.42,1.75,9.42,6.51,13.84,15.99,15.02,10.86,1.35,21.21-.32,31.1-4.96,.67-.32,1.36-.59,2.05-.88,.06-.03,.16,.03,.41,.09Z"/>
      <path class="cls-2" d="M255.65,125.32c0,8.64-.02,17,.02,25.37,0,1.31-.91,1.41-1.73,1.72-8.61,3.23-17.5,5.3-26.69,5.83-7.58,.43-15.14,.19-22.57-1.59-17.73-4.24-29.04-17.32-31-35.61-.86-8.05-.37-16.1-.47-24.16-.1-7.39,.03-14.79-.06-22.19-.02-1.68,.33-2.27,2.15-2.25,9.32,.1,18.64,.09,27.96,0,1.82-.02,2.15,.6,2.16,2.26,.07,12.46-.35,24.93,.24,37.38,.08,1.73,.32,3.48,.68,5.18,1.83,8.68,6.72,12.97,15.79,14.07,11.1,1.34,21.7-.27,31.76-5.21,.5-.25,1.01-.47,1.76-.82Z"/>
      <path class="cls-2" d="M279.16,4.05c8.46,.02,15.16,6.73,15.16,15.19,0,8.35-6.89,15.22-15.24,15.19-8.36-.03-15.21-6.93-15.16-15.27,.05-8.47,6.77-15.13,15.24-15.11Z"/>
    </g>
  </g>
</svg>